<svg xmlns="http://www.w3.org/2000/svg" xmlns:xlink="http://www.w3.org/1999/xlink" width="500" zoomAndPan="magnify" viewBox="0 0 375 374.999991" height="500" preserveAspectRatio="xMidYMid meet" version="1.0"><defs><g/><clipPath id="2ef26c2b3b"><path d="M 100.25 168.355469 L 138.5 168.355469 L 138.5 206.605469 L 100.25 206.605469 Z M 100.25 168.355469 " clip-rule="nonzero"/></clipPath></defs><rect x="-37.5" width="450" fill="#ffffff" y="-37.499999" height="449.999989" fill-opacity="1"/><rect x="-37.5" width="450" fill="#000000" y="-37.499999" height="449.999989" fill-opacity="1"/><g clip-path="url(#2ef26c2b3b)"><path fill="#ffffff" d="M 107.882812 199.726562 L 108.316406 200.15625 L 108.359375 200.199219 C 109.707031 201.59375 109.691406 203.839844 108.316406 205.214844 C 106.941406 206.59375 104.695312 206.605469 103.296875 205.257812 L 103.253906 205.214844 L 102.824219 204.789062 L 101.644531 203.605469 C 100.253906 202.214844 100.253906 199.941406 101.644531 198.546875 C 103.035156 197.15625 105.3125 197.15625 106.703125 198.546875 Z M 131.75 180.152344 L 137.058594 174.84375 C 138.449219 173.453125 138.449219 171.175781 137.058594 169.78125 C 135.664062 168.390625 133.390625 168.390625 132 169.78125 L 124.160156 177.621094 C 122.769531 179.011719 122.769531 181.285156 124.160156 182.683594 L 126.6875 185.210938 L 127.140625 185.660156 L 132.03125 190.550781 C 133.421875 191.941406 135.699219 191.941406 137.09375 190.550781 C 138.484375 189.160156 138.484375 186.882812 137.09375 185.492188 L 132.203125 180.597656 Z M 101.847656 169.816406 L 101.847656 169.8125 C 103.234375 168.421875 105.515625 168.421875 106.90625 169.8125 L 137.027344 199.933594 C 138.421875 201.324219 138.421875 203.605469 137.027344 204.996094 C 135.636719 206.386719 133.359375 206.386719 131.964844 204.996094 L 101.847656 174.871094 C 100.457031 173.480469 100.457031 171.207031 101.847656 169.816406 Z M 101.804688 184.234375 C 103.191406 182.84375 105.46875 182.84375 106.863281 184.234375 L 122.605469 199.976562 C 123.996094 201.367188 123.996094 203.648438 122.605469 205.039062 C 121.210938 206.429688 118.9375 206.429688 117.546875 205.039062 L 112.652344 200.148438 L 105.230469 192.726562 L 101.804688 189.296875 C 100.414062 187.90625 100.414062 185.625 101.804688 184.234375 Z M 101.804688 184.234375 " fill-opacity="1" fill-rule="evenodd"/></g><g fill="#ffffff" fill-opacity="1"><g transform="translate(145.703842, 196.454033)"><g><path d="M 2.15625 0 L 2.15625 -22.1875 L 16.640625 -22.1875 L 16.640625 -18.921875 L 6.203125 -18.921875 L 6.203125 -12.828125 L 15.6875 -12.828125 L 15.6875 -9.671875 L 6.203125 -9.671875 L 6.203125 -3.265625 L 16.640625 -3.265625 L 16.640625 0 Z M 2.15625 0 "/></g></g></g><g fill="#ffffff" fill-opacity="1"><g transform="translate(168.923865, 196.454033)"><g><path d="M 1.484375 0 L 1.484375 -3.109375 L 11.6875 -18.796875 L 1.578125 -18.796875 L 1.578125 -22.1875 L 16.375 -22.1875 L 16.375 -19.078125 L 6.109375 -3.390625 L 16.453125 -3.390625 L 16.453125 0 Z M 1.484375 0 "/></g></g></g><g fill="#ffffff" fill-opacity="1"><g transform="translate(191.767172, 196.454033)"><g><path d="M 12.078125 0.375 C 9.898438 0.375 8.023438 -0.101562 6.453125 -1.0625 C 4.878906 -2.019531 3.65625 -3.359375 2.78125 -5.078125 C 1.914062 -6.804688 1.484375 -8.8125 1.484375 -11.09375 C 1.484375 -13.351562 1.914062 -15.34375 2.78125 -17.0625 C 3.65625 -18.78125 4.878906 -20.125 6.453125 -21.09375 C 8.023438 -22.070312 9.898438 -22.5625 12.078125 -22.5625 C 14.609375 -22.5625 16.671875 -21.953125 18.265625 -20.734375 C 19.859375 -19.523438 20.878906 -17.832031 21.328125 -15.65625 L 18.375 -15.65625 C 18.039062 -17.03125 17.347656 -18.132812 16.296875 -18.96875 C 15.253906 -19.800781 13.847656 -20.21875 12.078125 -20.21875 C 10.492188 -20.21875 9.109375 -19.851562 7.921875 -19.125 C 6.734375 -18.394531 5.816406 -17.347656 5.171875 -15.984375 C 4.535156 -14.617188 4.21875 -12.988281 4.21875 -11.09375 C 4.21875 -9.1875 4.535156 -7.550781 5.171875 -6.1875 C 5.816406 -4.832031 6.734375 -3.789062 7.921875 -3.0625 C 9.109375 -2.332031 10.492188 -1.96875 12.078125 -1.96875 C 13.847656 -1.96875 15.253906 -2.375 16.296875 -3.1875 C 17.347656 -4 18.039062 -5.082031 18.375 -6.4375 L 21.328125 -6.4375 C 20.878906 -4.300781 19.859375 -2.628906 18.265625 -1.421875 C 16.671875 -0.222656 14.609375 0.375 12.078125 0.375 Z M 12.078125 0.375 "/></g></g></g><g fill="#ffffff" fill-opacity="1"><g transform="translate(219.484893, 196.454033)"><g><path d="M 2.34375 0 L 2.34375 -22.1875 L 5 -22.1875 L 5 0 Z M 2.34375 0 "/></g></g></g><g fill="#ffffff" fill-opacity="1"><g transform="translate(231.745767, 196.454033)"><g><path d="M 7.546875 0 L 7.546875 -20 L 0.921875 -20 L 0.921875 -22.1875 L 16.828125 -22.1875 L 16.828125 -20 L 10.203125 -20 L 10.203125 0 Z M 7.546875 0 "/></g></g></g><g fill="#ffffff" fill-opacity="1"><g transform="translate(254.395662, 196.454033)"><g><path d="M 2.34375 0 L 2.34375 -22.1875 L 16.0625 -22.1875 L 16.0625 -20 L 5 -20 L 5 -12.265625 L 15.109375 -12.265625 L 15.109375 -10.109375 L 5 -10.109375 L 5 -2.1875 L 16.0625 -2.1875 L 16.0625 0 Z M 2.34375 0 "/></g></g></g></svg>
